<?xml version="1.0" encoding="UTF-8" standalone="no"?>
<svg width="195px" height="49px" viewBox="0 0 195 49" version="1.1" xmlns="http://www.w3.org/2000/svg" xmlns:xlink="http://www.w3.org/1999/xlink">
    <!-- Generator: Sketch 46.2 (44496) - http://www.bohemiancoding.com/sketch -->
    <title>Page 1</title>
    <desc>Created with Sketch.</desc>
    <defs>
        <polygon id="path-1" points="0.862419355 0.148387097 21.2237097 0.148387097 21.2237097 40.8690323 0.862419355 40.8690323"></polygon>
        <polygon id="path-3" points="0 49.8519355 194.770968 49.8519355 194.770968 1.61322581 0 1.61322581"></polygon>
    </defs>
    <g id="Page-1" stroke="none" stroke-width="1" fill="none" fill-rule="evenodd">
        <g id="iPhone-7" transform="translate(-13.000000, -1.000000)">
            <g id="Page-1" transform="translate(13.000000, 0.000000)">
                <g id="Group-3" transform="translate(17.741935, 1.464839)">
                    <mask id="mask-2" fill="white">
                        <use xlink:href="#path-1"></use>
                    </mask>
                    <g id="Clip-2"></g>
                    <path d="M0.862419355,0.148064516 L0.862419355,11.1158065 C6.04951613,11.1158065 10.2543548,15.3206452 10.2543548,20.5077419 C10.2543548,25.6932258 6.04951613,29.8980645 0.862419355,29.8980645 L0.862419355,40.8690323 C12.1075806,40.8690323 21.2237097,31.7512903 21.2237097,20.5077419 C21.2237097,9.26258065 12.1075806,0.148064516 0.862419355,0.148064516" id="Fill-1" fill="#00A0E8" mask="url(#mask-2)"></path>
                </g>
                <mask id="mask-4" fill="white">
                    <use xlink:href="#path-3"></use>
                </mask>
                <g id="Clip-5"></g>
                <polygon id="Fill-4" fill="#FBC700" mask="url(#mask-4)" points="0 12.6503226 11.0370968 12.6503226 11.0370968 1.61322581 0 1.61322581"></polygon>
                <polygon id="Fill-6" fill="#00A0E8" mask="url(#mask-4)" points="0 49.8519355 11.0370968 49.8519355 11.0370968 20.2116129 0 20.2116129"></polygon>
                <path d="M64.2830645,1.61290323 L64.2830645,12.5806452 C69.4701613,12.5806452 73.6766129,16.7854839 73.6766129,21.9725806 C73.6766129,27.1580645 69.4701613,31.3629032 64.2830645,31.3629032 L64.2830645,42.333871 C75.5298387,42.333871 84.6443548,33.216129 84.6443548,21.9725806 C84.6443548,10.7274194 75.5298387,1.61290323 64.2830645,1.61290323" id="Fill-7" fill="#00A0E8" mask="url(#mask-4)"></path>
                <polygon id="Fill-8" fill="#FBC700" mask="url(#mask-4)" points="45.6790323 12.6503226 56.7177419 12.6503226 56.7177419 1.61322581 45.6790323 1.61322581"></polygon>
                <polygon id="Fill-9" fill="#00A0E8" mask="url(#mask-4)" points="45.6790323 49.8519355 56.7177419 49.8519355 56.7177419 20.2116129 45.6790323 20.2116129"></polygon>
                <path d="M111.769194,27.0382258 L105.13371,21.3398387 C107.454677,17.6962903 108.711129,14.4946774 109.386935,12.1640323 C109.95629,10.1995161 108.580484,8.20919355 106.65629,8.20919355 L103.448226,8.20919355 L102.270806,2.91241935 L97.0933871,2.91241935 L98.2708065,8.20919355 L91.8514516,8.20919355 L91.8514516,12.2785484 L103.801452,12.2785484 C104.012742,12.2785484 104.164355,12.5043548 104.082097,12.7156452 C103.253065,14.8624194 101.764355,17.418871 99.7530645,20.1704839 C96.2901613,24.9075806 90.028871,29.7220968 89.9546774,29.7769355 L92.6417742,34.0269355 C92.8175806,33.9317742 95.445,32.0398387 98.3917742,29.2898387 L98.3917742,48.6914516 L103.569194,48.6914516 L103.569194,26.1269355 L108.535323,30.5995161 L111.769194,27.0382258 Z" id="Fill-10" fill="#00A0E8" mask="url(#mask-4)"></path>
                <path d="M118.639032,9.49387097 C118.639032,9.03096774 118.989032,8.65516129 119.422903,8.65516129 L131.322903,8.65516129 C131.756774,8.65516129 132.106774,9.03096774 132.106774,9.49387097 L132.106774,33.1535484 L137.566452,33.1535484 L137.566452,8.33580645 C137.566452,6.13903226 135.903548,4.36 133.850323,4.36 L116.895484,4.36 C114.843871,4.36 113.179355,6.13903226 113.179355,8.33580645 L113.179355,33.1535484 L118.639032,33.1535484 L118.639032,9.49387097 Z" id="Fill-11" fill="#00A0E8" mask="url(#mask-4)"></path>
                <path d="M130.326129,43.0553226 L130.326129,34.0601613 L126.813226,34.0601613 C127.82129,31.5069355 128.445484,28.5553226 128.445484,25.1504839 L128.445484,11.7585484 L122.905161,11.7585484 L122.905161,25.1504839 C122.905161,39.1972581 108.979355,44.0343548 108.851935,44.0875806 L110.884194,48.6924194 C111.36,48.4972581 120.195484,45.6053226 125.150323,37.4230645 L125.150323,44.298871 C125.150323,46.4940323 126.813226,48.2746774 128.866452,48.2746774 L139.534194,48.2746774 L139.534194,43.8924194 L131.11,43.8924194 C130.676129,43.8924194 130.326129,43.5182258 130.326129,43.0553226" id="Fill-12" fill="#00A0E8" mask="url(#mask-4)"></path>
                <polygon id="Fill-13" fill="#00A0E8" mask="url(#mask-4)" points="162.347258 13.0316129 169.105323 13.0316129 169.105323 8.84612903 162.347258 8.84612903 162.347258 2.91225806 157.169839 2.91225806 157.169839 18.7041935 154.077903 18.7041935 154.077903 6.55096774 148.900484 6.55096774 148.900484 18.7041935 146.047258 18.7041935 146.047258 22.7719355 169.492419 22.7719355 169.492419 18.7041935 162.347258 18.7041935"></polygon>
                <path d="M179.594516,14.0104839 L175.649355,14.0104839 C173.594516,14.0104839 171.931613,15.791129 171.931613,17.9846774 L171.931613,36.8201613 L177.107419,36.8201613 L177.107419,18.9169355 C177.107419,18.4556452 177.459032,18.0798387 177.89129,18.0798387 L187.378387,18.0798387 C187.812258,18.0798387 188.162258,18.4556452 188.162258,18.9169355 L188.162258,36.8201613 L193.339677,36.8201613 L193.339677,17.9846774 C193.339677,15.791129 191.675161,14.0104839 189.621935,14.0104839 L184.771935,14.0104839 L185.599355,8.42983871 L193.778387,8.42983871 L193.778387,4.36048387 L171.275161,4.36048387 L171.275161,8.42983871 L180.421935,8.42983871 L179.594516,14.0104839 Z" id="Fill-14" fill="#00A0E8" mask="url(#mask-4)"></path>
                <path d="M153.629032,25.9474194 L148.458065,25.7329032 C148.454839,25.7909677 148.167742,31.0425806 145.987097,37.0667742 L150.872581,38.7216129 C153.316129,31.97 153.617742,26.2151613 153.629032,25.9474194" id="Fill-15" fill="#00A0E8" mask="url(#mask-4)"></path>
                <path d="M161.988065,36.77 L161.988065,24.7474194 L156.563871,24.7474194 L156.563871,38.5425806 L160.667097,38.5425806 C158.115484,41.4506452 153.778387,43.8925806 146.39129,43.8925806 L146.39129,48.2748387 C169.813871,48.2748387 169.486452,29.3216129 169.49129,29.1280645 L164.317097,29.0022581 C164.310645,29.303871 164.294516,33.0909677 161.988065,36.77" id="Fill-16" fill="#00A0E8" mask="url(#mask-4)"></path>
                <path d="M185.179032,34.5356452 C185.214516,34.1420968 185.240323,33.7420968 185.240323,33.3291935 L185.240323,20.5598387 L180.062903,20.5598387 L180.062903,33.3291935 C180.062903,40.5275806 170.15,43.6743548 170.058065,43.7033871 L171.662903,48.4630645 C172.045161,48.3437097 178.754839,46.221129 182.593548,41.1017742 C184.546774,44.0275806 187.9,47.2098387 193.570968,48.5195161 L194.770968,43.6485484 C187.541935,41.9808065 185.583871,36.0904839 185.179032,34.5356452" id="Fill-17" fill="#00A0E8" mask="url(#mask-4)"></path>
            </g>
        </g>
    </g>
</svg>